<?xml version="1.0" encoding="UTF-8" standalone="no"?>
<!-- Uploaded to: SVG Repo, www.svgrepo.com, Generator: SVG Repo Mixer Tools -->

<svg
   fill="#000000"
   width="800px"
   height="800px"
   viewBox="0 0 32 32"
   version="1.1"
   id="svg1"
   sodipodi:docname="energy.svg"
   inkscape:version="1.4.2 (ebf0e94, 2025-05-08)"
   xmlns:inkscape="http://www.inkscape.org/namespaces/inkscape"
   xmlns:sodipodi="http://sodipodi.sourceforge.net/DTD/sodipodi-0.dtd"
   xmlns="http://www.w3.org/2000/svg"
   xmlns:svg="http://www.w3.org/2000/svg">
  <defs
     id="defs1" />
  <sodipodi:namedview
     id="namedview1"
     pagecolor="#ffffff"
     bordercolor="#999999"
     borderopacity="1"
     inkscape:showpageshadow="2"
     inkscape:pageopacity="0"
     inkscape:pagecheckerboard="0"
     inkscape:deskcolor="#d1d1d1"
     inkscape:zoom="0.765"
     inkscape:cx="400"
     inkscape:cy="400"
     inkscape:window-width="1600"
     inkscape:window-height="815"
     inkscape:window-x="0"
     inkscape:window-y="0"
     inkscape:window-maximized="1"
     inkscape:current-layer="svg1" />
  <path
     d="M18.605 2.022v0zM18.605 2.022l-2.256 11.856 8.174 0.027-11.127 16.072 2.257-13.043-8.174-0.029zM18.606 0.023c-0.054 0-0.108 0.002-0.161 0.006-0.353 0.028-0.587 0.147-0.864 0.333-0.154 0.102-0.295 0.228-0.419 0.373-0.037 0.043-0.071 0.088-0.103 0.134l-11.207 14.832c-0.442 0.607-0.508 1.407-0.168 2.076s1.026 1.093 1.779 1.099l5.773 0.042-1.815 10.694c-0.172 0.919 0.318 1.835 1.18 2.204 0.257 0.11 0.527 0.163 0.793 0.163 0.629 0 1.145-0.294 1.533-0.825l11.22-16.072c0.442-0.607 0.507-1.408 0.168-2.076-0.34-0.669-1.026-1.093-1.779-1.098l-5.773-0.010 1.796-9.402c0.038-0.151 0.057-0.308 0.057-0.47 0-1.082-0.861-1.964-1.939-1.999-0.024-0.001-0.047-0.001-0.071-0.001v0z"
     id="path1"
     style="fill:#ffffff;fill-opacity:1;stroke:none;stroke-opacity:1;stroke-width:0.8;stroke-dasharray:none" />
</svg>
